<svg id="eiySn46wbqQ1" xmlns="http://www.w3.org/2000/svg" xmlns:xlink="http://www.w3.org/1999/xlink" viewBox="0 0 100 125" shape-rendering="geometricPrecision" text-rendering="geometricPrecision"><path d="M74.282,12.342l-.217-.265L44.966,5.334L25.846,15.643L15.05,23.395L5.646,43.445L8.305,71.534L32.588,94.666h34.915L91.705,71.438L94.361,36.98L74.282,12.342ZM58.092,53.735L29.996,42.901L54.05,24.588l4.042,29.147ZM28.607,44.507L58.075,55.822L49.364,83.861L20.017,72.464l8.59-27.957ZM47.531,85.295L33.317,92.384L21.455,75.169L47.531,85.295Zm4.041-1.803L59.825,56.93L79.247,72.667L51.572,83.492Zm26.991-8.409L66.764,92.384L52.468,85.29L78.563,75.083ZM56.071,24.606L81.973,39.022L60.08,53.514L56.071,24.606Zm.84-1.822l16.078-8.411l8.933,22.331-25.011-13.92ZM28.848,41.261L27.4,17.783l25.079,5.488-23.631,17.99Zm-1.945.95l-18.246.371L25.494,19.366l1.409,22.845Zm-.3,2.007L18.651,70.102L8.148,44.593l18.455-.375ZM18.222,73.963l8.492,12.348-14.22-13.545l5.728,1.197ZM50.001,86.297l12.834,6.369h-25.603l12.769-6.369Zm31.81-12.428l5.718-1.196-14.19,13.619l8.472-12.423Zm-1.446-2.87L60.997,55.305L82.738,40.913L80.365,70.999Zm4.158-33.176L76.865,18.678L91.479,36.61l-6.956,1.213ZM45.25,7.453l25.401,5.885L54.82,21.62l-.1-.055-.153.116L29.17,16.123l16.08-8.67ZM16.639,24.716l5.233-3.763L12.055,34.49l4.584-9.774ZM8.294,50.201l8.851,21.494-6.954-1.454-1.897-20.04ZM89.797,70.157l-7.483,1.564L84.833,39.8l7.405-1.291-2.441,31.648Z" transform="matrix(.920482 0.390785-.390785 0.920482 23.511933-11.545425)" fill="#fbe4a6"/></svg>
